<svg width="180" height="180" viewBox="0 0 180 180" fill="none" xmlns="http://www.w3.org/2000/svg">
<rect width="180" height="180" rx="25" fill="black"/>
<path d="M49.232 116.056C48.1653 116.397 47.0987 116.483 46.032 116.312C45.008 116.141 44.2613 115.48 43.792 114.328C43.408 113.304 43.472 112.323 43.984 111.384C44.496 110.445 45.3493 109.827 46.544 109.528C49.104 108.803 51.3013 107.971 53.136 107.032C55.0133 106.093 56.5493 105.027 57.744 103.832H46.864C46.0533 103.832 45.3493 103.555 44.752 103C44.1973 102.403 43.92 101.699 43.92 100.888C43.92 100.035 44.1973 99.3307 44.752 98.776C45.3493 98.1787 46.0533 97.88 46.864 97.88H61.072C61.2 97.4533 61.3067 97.0267 61.392 96.6C61.4773 96.1307 61.5413 95.6613 61.584 95.192H50.064C49.2533 95.192 48.5493 94.9147 47.952 94.36C47.3973 93.7627 47.12 93.0587 47.12 92.248C47.12 91.4373 47.3973 90.7547 47.952 90.2C48.5493 89.6027 49.2533 89.304 50.064 89.304H61.776V86.936H57.104C53.6907 86.936 51.28 86.424 49.872 85.4C48.5067 84.3333 47.824 82.4347 47.824 79.704C47.824 77.1867 48.4 75.3947 49.552 74.328C50.704 73.2613 52.6667 72.6427 55.44 72.472C54.7147 71.8747 54.352 71 54.352 69.848V68.248H47.184C46.1173 68.248 45.2853 67.8427 44.688 67.032C44.6453 67.3733 44.56 67.7147 44.432 68.056C44.3467 68.3973 44.1973 68.7387 43.984 69.08C43.4293 69.8907 42.6613 70.4027 41.68 70.616C40.6987 70.8293 39.7813 70.6373 38.928 70.04C38.416 69.6987 37.712 69.2507 36.816 68.696C35.9627 68.1413 35.088 67.5867 34.192 67.032C33.3387 66.4347 32.6347 65.9867 32.08 65.688C31.2693 65.176 30.736 64.4507 30.48 63.512C30.224 62.5733 30.3093 61.6773 30.736 60.824C31.248 59.8427 31.9947 59.2453 32.976 59.032C34 58.776 34.96 58.8827 35.856 59.352C36.4107 59.6507 37.1573 60.0987 38.096 60.696C39.0773 61.2933 40.016 61.8907 40.912 62.488C41.8507 63.0427 42.5547 63.4907 43.024 63.832C43.4933 64.1733 43.8347 64.536 44.048 64.92C44.1333 64.1093 44.4747 63.4267 45.072 62.872C45.6693 62.3173 46.3733 62.04 47.184 62.04H54.352V60.12C54.352 59.0107 54.6933 58.1573 55.376 57.56C56.0587 56.92 56.8907 56.6 57.872 56.6C58.8533 56.6 59.664 56.92 60.304 57.56C60.9867 58.1573 61.328 59.0107 61.328 60.12V62.04H68.752V60.12C68.752 59.0107 69.0933 58.1573 69.776 57.56C70.4587 56.92 71.2693 56.6 72.208 56.6C73.1893 56.6 74.0213 56.92 74.704 57.56C75.3867 58.1573 75.728 59.0107 75.728 60.12V62.04H83.792C84.6453 62.04 85.3707 62.36 85.968 63C86.5653 63.5973 86.864 64.3227 86.864 65.176C86.864 66.0293 86.5653 66.7547 85.968 67.352C85.3707 67.9493 84.6453 68.248 83.792 68.248H75.728V69.848C75.728 70.9147 75.3867 71.7893 74.704 72.472C77.776 72.5147 79.9307 73.0907 81.168 74.2C82.4053 75.2667 83.024 77.1013 83.024 79.704C83.024 82.4347 82.3413 84.3333 80.976 85.4C79.6107 86.424 77.2213 86.936 73.808 86.936H68.752V89.304H80.656C81.5093 89.304 82.2133 89.6027 82.768 90.2C83.3227 90.7547 83.6 91.4373 83.6 92.248C83.6 93.0587 83.3227 93.7627 82.768 94.36C82.2133 94.9147 81.5093 95.192 80.656 95.192H68.624C68.496 96.1307 68.368 97.0267 68.24 97.88H84.176C85.0293 97.88 85.7333 98.1787 86.288 98.776C86.8427 99.3307 87.12 100.035 87.12 100.888C87.12 101.699 86.8427 102.403 86.288 103C85.7333 103.555 85.0293 103.832 84.176 103.832H73.36C74.9813 105.155 76.7307 106.285 78.608 107.224C80.4853 108.163 82.4693 108.973 84.56 109.656C85.6693 110.04 86.416 110.68 86.8 111.576C87.184 112.515 87.184 113.432 86.8 114.328C86.3733 115.352 85.6907 115.971 84.752 116.184C83.8133 116.44 82.7893 116.397 81.68 116.056C78.8213 115.117 75.8987 113.667 72.912 111.704C69.968 109.784 67.5573 107.459 65.68 104.728C62.6933 109.72 57.2107 113.496 49.232 116.056ZM30.608 114.584C29.6693 113.987 29.072 113.197 28.816 112.216C28.6027 111.277 28.7733 110.339 29.328 109.4C29.84 108.504 30.48 107.352 31.248 105.944C32.016 104.536 32.8053 103.043 33.616 101.464C34.4693 99.8853 35.2587 98.3707 35.984 96.92C36.7093 95.4693 37.3067 94.232 37.776 93.208C38.2027 92.312 38.8853 91.736 39.824 91.48C40.8053 91.1813 41.7227 91.2453 42.576 91.672C44.624 92.696 45.1787 94.3173 44.24 96.536C43.6853 97.944 42.9387 99.672 42 101.72C41.0613 103.725 40.08 105.752 39.056 107.8C38.0747 109.805 37.1787 111.512 36.368 112.92C35.8133 113.859 34.9813 114.52 33.872 114.904C32.8053 115.288 31.7173 115.181 30.608 114.584ZM36.944 84.696C36.4747 84.312 35.792 83.8427 34.896 83.288C34 82.7333 33.104 82.1787 32.208 81.624C31.3547 81.0267 30.6507 80.5787 30.096 80.28C29.2853 79.768 28.752 79.0427 28.496 78.104C28.24 77.1653 28.3253 76.2907 28.752 75.48C29.3067 74.4987 30.0747 73.88 31.056 73.624C32.0373 73.368 32.976 73.496 33.872 74.008C34.4693 74.3067 35.2373 74.7547 36.176 75.352C37.1147 75.9067 38.032 76.4827 38.928 77.08C39.8667 77.6773 40.5707 78.1253 41.04 78.424C41.936 79.0213 42.4693 79.832 42.64 80.856C42.8533 81.88 42.6613 82.8187 42.064 83.672C41.5093 84.4827 40.72 84.9947 39.696 85.208C38.7147 85.4213 37.7973 85.2507 36.944 84.696ZM60.304 72.408H69.776C69.0933 71.8107 68.752 70.9573 68.752 69.848V68.248H61.328V69.848C61.328 70.9573 60.9867 71.8107 60.304 72.408ZM68.752 81.496H73.808C74.704 81.496 75.3227 81.368 75.664 81.112C76.0053 80.856 76.176 80.3867 76.176 79.704C76.176 78.9787 76.0053 78.5093 75.664 78.296C75.3227 78.04 74.704 77.912 73.808 77.912H68.752V81.496ZM57.104 81.496H61.776V77.912H57.104C56.1653 77.912 55.5253 78.04 55.184 78.296C54.8853 78.5093 54.736 78.9787 54.736 79.704C54.736 80.3867 54.8853 80.856 55.184 81.112C55.5253 81.368 56.1653 81.496 57.104 81.496Z" fill="#FF7BAC"/>
<path d="M114.704 117.272C113.595 117.272 112.635 116.909 111.824 116.184C111.056 115.459 110.672 114.52 110.672 113.368C110.672 112.387 111.056 111.533 111.824 110.808C112.592 110.083 113.573 109.699 114.768 109.656C117.584 109.571 119.589 109.016 120.784 107.992C122.021 106.925 122.64 105.112 122.64 102.552C122.64 101.101 122.448 99.7787 122.064 98.584H95.568C94.544 98.584 93.712 98.264 93.072 97.624C92.4747 96.9413 92.176 96.1307 92.176 95.192C92.176 94.2533 92.4747 93.464 93.072 92.824C93.712 92.184 94.544 91.864 95.568 91.864H116.88C116.283 91.2667 115.899 90.52 115.728 89.624C115.6 88.728 115.877 87.896 116.56 87.128C117.243 86.3173 118.075 85.8267 119.056 85.656C120.037 85.4853 121.04 85.72 122.064 86.36C122.235 86.4453 122.384 86.552 122.512 86.68C122.683 86.7653 122.853 86.872 123.024 87L126.608 84.76C127.333 84.3333 127.632 83.9067 127.504 83.48C127.419 83.0533 126.971 82.84 126.16 82.84H108.368C107.301 82.84 106.448 82.52 105.808 81.88C105.211 81.1973 104.912 80.3867 104.912 79.448C104.912 78.5093 105.211 77.72 105.808 77.08C106.448 76.3973 107.301 76.056 108.368 76.056H130.768C132.603 76.056 134.075 76.44 135.184 77.208C136.336 77.976 137.083 78.936 137.424 80.088C137.765 81.24 137.68 82.456 137.168 83.736C136.699 84.9733 135.76 86.0827 134.352 87.064C133.584 87.6187 132.56 88.3013 131.28 89.112C130.043 89.9227 128.805 90.7333 127.568 91.544L127.76 91.864H148.368C149.392 91.864 150.203 92.184 150.8 92.824C151.44 93.464 151.76 94.2533 151.76 95.192C151.76 96.1307 151.44 96.9413 150.8 97.624C150.203 98.264 149.392 98.584 148.368 98.584H130.384C130.64 99.992 130.768 101.464 130.768 103C130.768 107.907 129.445 111.512 126.8 113.816C124.197 116.12 120.165 117.272 114.704 117.272ZM98.448 81.56C97.3813 81.56 96.4427 81.2187 95.632 80.536C94.864 79.8533 94.48 78.9147 94.48 77.72V74.456C94.48 70.9147 95.376 68.4187 97.168 66.968C99.0027 65.5173 102.053 64.792 106.32 64.792H117.52V60.504C117.52 59.224 117.925 58.2213 118.736 57.496C119.589 56.7707 120.613 56.408 121.808 56.408C123.003 56.408 124.005 56.7707 124.816 57.496C125.669 58.2213 126.096 59.224 126.096 60.504V64.792H137.744C142.053 64.792 145.104 65.5173 146.896 66.968C148.688 68.4187 149.584 70.9147 149.584 74.456V77.72C149.584 78.9147 149.2 79.8533 148.432 80.536C147.707 81.2187 146.789 81.56 145.68 81.56C144.613 81.56 143.675 81.24 142.864 80.6C142.096 79.96 141.712 79.0427 141.712 77.848V74.648C141.712 73.4107 141.392 72.536 140.752 72.024C140.155 71.4693 139.024 71.192 137.36 71.192H106.704C105.083 71.192 103.952 71.4693 103.312 72.024C102.672 72.536 102.352 73.4107 102.352 74.648V77.848C102.352 79.0427 101.968 79.96 101.2 80.6C100.475 81.24 99.5573 81.56 98.448 81.56Z" fill="#29ABE2"/>
</svg>
